<svg width="142" height="127" viewBox="0 0 142 127" fill="none" xmlns="http://www.w3.org/2000/svg">
<path d="M130.196 74.2835L141.85 23.0057C142.692 19.3034 139.878 15.7778 136.081 15.7778H39.2492L36.9895 4.73087C36.4265 1.9774 34.0036 0 31.1929 0H5.91667C2.64894 0 0 2.64894 0 5.91667V9.86111C0 13.1288 2.64894 15.7778 5.91667 15.7778H23.1448L40.4629 100.444C36.3197 102.827 33.5278 107.294 33.5278 112.417C33.5278 120.041 39.7087 126.222 47.3333 126.222C54.958 126.222 61.1389 120.041 61.1389 112.417C61.1389 108.553 59.5495 105.062 56.9913 102.556H108.675C106.117 105.062 104.528 108.553 104.528 112.417C104.528 120.041 110.709 126.222 118.333 126.222C125.958 126.222 132.139 120.041 132.139 112.417C132.139 106.951 128.962 102.227 124.354 99.9904L125.714 94.0057C126.555 90.3034 123.741 86.7778 119.944 86.7778H53.7719L52.1584 78.8889H124.427C127.189 78.8889 129.584 76.9773 130.196 74.2835Z" fill="url(#paint0_linear_167_12767)"/>
<defs>
<linearGradient id="paint0_linear_167_12767" x1="71" y1="0" x2="71" y2="126.222" gradientUnits="userSpaceOnUse">
<stop stop-color="#0E446E"/>
<stop offset="0.6875" stop-color="#021E34"/>
</linearGradient>
</defs>
</svg>
