<svg width="46" height="47" viewBox="0 0 46 47" fill="none" xmlns="http://www.w3.org/2000/svg">
<circle cx="22.9753" cy="23.7937" r="21.6128" fill="white" stroke="#F9AB46" stroke-width="2.72498"/>
<circle cx="22.8902" cy="23.7083" r="18.5299" fill="#FEF2E3"/>
<path d="M32.0649 25.5221L33.7643 18.2507C33.887 17.7256 33.4767 17.2257 32.923 17.2257H18.8033L18.4738 15.6592C18.3917 15.2687 18.0384 14.9883 17.6285 14.9883H13.9428C13.4663 14.9883 13.0801 15.3639 13.0801 15.8273V16.3867C13.0801 16.8501 13.4663 17.2257 13.9428 17.2257H16.455L18.9803 29.2319C18.3761 29.5697 17.969 30.2033 17.969 30.9296C17.969 32.0109 18.8703 32.8873 19.9821 32.8873C21.0939 32.8873 21.9952 32.0109 21.9952 30.9296C21.9952 30.3817 21.7634 29.8866 21.3904 29.5313H28.9268C28.5538 29.8866 28.322 30.3817 28.322 30.9296C28.322 32.0109 29.2233 32.8873 30.3351 32.8873C31.4469 32.8873 32.3482 32.0109 32.3482 30.9296C32.3482 30.1545 31.8849 29.4847 31.213 29.1675L31.4113 28.3189C31.534 27.7938 31.1237 27.2939 30.57 27.2939H20.9209L20.6857 26.1752H31.2236C31.6265 26.1752 31.9757 25.9041 32.0649 25.5221Z" fill="#0E446E"/>
</svg>
