<svg width="26" height="26" viewBox="0 0 26 26" fill="none" xmlns="http://www.w3.org/2000/svg">
<path d="M26 13C26 20.1797 20.1797 26 13 26C5.82028 26 0 20.1797 0 13C0 5.82028 5.82028 0 13 0C20.1797 0 26 5.82028 26 13ZM11.4963 19.8834L21.1415 10.2382C21.469 9.91072 21.469 9.37966 21.1415 9.05214L19.9554 7.86605C19.6279 7.53848 19.0968 7.53848 18.7692 7.86605L10.9032 15.732L7.23078 12.0595C6.90326 11.732 6.3722 11.732 6.04463 12.0595L4.85854 13.2456C4.53102 13.5732 4.53102 14.1042 4.85854 14.4317L10.3102 19.8833C10.6377 20.2109 11.1687 20.2109 11.4963 19.8834Z" fill="#039C00"/>
</svg>
