<svg width="30" height="26" viewBox="0 0 30 26" fill="none" xmlns="http://www.w3.org/2000/svg">
<path d="M14.8118 18.5836L7.33681 10.3221C6.88773 9.82579 6.88773 9.02104 7.33681 8.52466L8.96312 6.7272C9.41221 6.23082 10.1404 6.23082 10.5895 6.7272L15.625 12.2925L26.4105 0.372249C26.8596 -0.124083 27.5878 -0.124083 28.0369 0.372249L29.6632 2.16971C30.1123 2.66604 30.1123 3.47078 29.6632 3.96717L16.4382 18.5836C15.989 19.0799 15.2609 19.0799 14.8118 18.5836Z" fill="#F8A12D"/>
<path d="M24 13C24 19.0751 19.0751 24 13 24C6.92487 24 2 19.0751 2 13C2 6.92487 6.92487 2 13 2" stroke="#F8A12D" stroke-width="4"/>
</svg>
