<svg width="34" height="33" viewBox="0 0 34 33" fill="none" xmlns="http://www.w3.org/2000/svg">
<circle cx="17.0267" cy="16.5387" r="15.3328" stroke="#0E446E" stroke-width="1.49588"/>
<path d="M16.8742 9.73438C14.9829 9.73438 14.7472 9.74351 14.0071 9.77482C13.2639 9.81135 12.7612 9.92659 12.3176 10.0988C11.8601 10.278 11.4705 10.5158 11.0856 10.9029C10.6981 11.2877 10.4581 11.6774 10.2815 12.1349C10.1093 12.5784 9.99409 13.0812 9.95756 13.8244C9.92407 14.5649 9.91711 14.8002 9.91711 16.6915C9.91711 18.5827 9.92625 18.8184 9.95756 19.5586C9.99409 20.2996 10.1093 20.8045 10.2815 21.2481C10.4607 21.7055 10.6986 22.0952 11.0856 22.4801C11.4705 22.8675 11.8601 23.1076 12.3176 23.2841C12.7612 23.4542 13.2661 23.5716 14.0071 23.6081C14.7477 23.6416 14.9829 23.6486 16.8742 23.6486C18.7655 23.6486 19.0012 23.6394 19.7413 23.6081C20.4823 23.5716 20.9872 23.4537 21.4308 23.2841C21.8883 23.105 22.2779 22.8671 22.6628 22.4801C23.0503 22.0952 23.2903 21.7077 23.4669 21.2481C23.6369 20.8045 23.7543 20.2996 23.7909 19.5586C23.8243 18.818 23.8313 18.5827 23.8313 16.6915C23.8313 14.8002 23.8222 14.5645 23.7909 13.8244C23.7543 13.0833 23.6365 12.5758 23.4669 12.1349C23.2877 11.6774 23.0498 11.2877 22.6628 10.9029C22.2779 10.5154 21.8905 10.2754 21.4308 10.0988C20.9872 9.92659 20.4823 9.81135 19.7413 9.77482C19.0007 9.74133 18.7655 9.73438 16.8742 9.73438V9.73438ZM16.8742 10.9868C18.7315 10.9868 18.9533 10.9959 19.6874 11.0273C20.3645 11.059 20.7333 11.1721 20.9781 11.2677C21.3047 11.3943 21.533 11.5439 21.78 11.7883C22.0222 12.0305 22.1718 12.2614 22.2984 12.588C22.394 12.8328 22.5071 13.2016 22.5389 13.8787C22.5702 14.6128 22.5793 14.835 22.5793 16.6919C22.5793 18.5488 22.5702 18.771 22.5362 19.5051C22.4997 20.1822 22.3866 20.551 22.2914 20.7958C22.1596 21.1224 22.0127 21.3507 21.77 21.5977C21.5252 21.8399 21.2921 21.9895 20.9681 22.1161C20.7263 22.2117 20.3523 22.3248 19.6726 22.3565C18.9346 22.3879 18.7172 22.397 16.8551 22.397C14.9929 22.397 14.7759 22.3879 14.0371 22.3539C13.36 22.3174 12.9864 22.2043 12.7416 22.1091C12.4111 21.9773 12.1845 21.8304 11.9419 21.5877C11.697 21.3429 11.5414 21.1098 11.4213 20.7858C11.3239 20.544 11.2126 20.17 11.1765 19.4903C11.1517 18.761 11.14 18.5349 11.14 16.6815C11.14 14.8289 11.1517 14.6023 11.1765 13.8639C11.2126 13.1842 11.3239 12.8111 11.4213 12.5684C11.5414 12.2375 11.6975 12.0114 11.9419 11.7665C12.1841 11.5243 12.4111 11.3678 12.7416 11.2451C12.9864 11.1499 13.3509 11.0368 14.0306 11.0029C14.7686 10.9764 14.986 10.9668 16.8455 10.9668L16.8742 10.9868ZM16.8742 13.1207C14.8994 13.1207 13.3026 14.7198 13.3026 16.6923C13.3026 18.6671 14.9016 20.2639 16.8742 20.2639C18.849 20.2639 20.4458 18.6649 20.4458 16.6923C20.4458 14.7176 18.8468 13.1207 16.8742 13.1207ZM16.8742 19.0115C15.5922 19.0115 14.555 17.9743 14.555 16.6923C14.555 15.4103 15.5922 14.3732 16.8742 14.3732C18.1562 14.3732 19.1934 15.4103 19.1934 16.6923C19.1934 17.9743 18.1562 19.0115 16.8742 19.0115ZM21.4247 12.9781C21.4247 13.4404 21.0485 13.8135 20.5884 13.8135C20.1262 13.8135 19.7531 13.4399 19.7531 12.9781C19.7531 12.5184 20.1288 12.1444 20.5884 12.1444C21.0481 12.1444 21.4247 12.5184 21.4247 12.9781Z" fill="#0E446E"/>
</svg>
