<svg width="35" height="35" viewBox="0 0 35 35" fill="none" xmlns="http://www.w3.org/2000/svg">
<circle cx="17.3356" cy="17.3356" r="16.5293" stroke="#F8A12D" stroke-width="1.61261"/>
<path d="M17.1711 10C15.1323 10 14.8782 10.0098 14.0803 10.0436C13.2791 10.083 12.7372 10.2072 12.259 10.3929C11.7658 10.586 11.3457 10.8424 10.9308 11.2597C10.5131 11.6746 10.2543 12.0946 10.064 12.5878C9.87836 13.066 9.75412 13.608 9.71474 14.4091C9.67864 15.2075 9.67114 15.4612 9.67114 17.5C9.67114 19.5388 9.68099 19.7929 9.71474 20.5909C9.75412 21.3897 9.87836 21.934 10.064 22.4122C10.2572 22.9054 10.5136 23.3254 10.9308 23.7403C11.3457 24.158 11.7658 24.4168 12.259 24.6071C12.7372 24.7904 13.2814 24.917 14.0803 24.9564C14.8787 24.9925 15.1323 25 17.1711 25C19.21 25 19.4641 24.9902 20.262 24.9564C21.0608 24.917 21.6051 24.79 22.0833 24.6071C22.5765 24.414 22.9966 24.1576 23.4115 23.7403C23.8292 23.3254 24.0879 22.9077 24.2783 22.4122C24.4616 21.934 24.5882 21.3897 24.6275 20.5909C24.6636 19.7925 24.6711 19.5388 24.6711 17.5C24.6711 15.4612 24.6613 15.2071 24.6275 14.4091C24.5882 13.6103 24.4611 13.0632 24.2783 12.5878C24.0851 12.0946 23.8287 11.6746 23.4115 11.2597C22.9966 10.842 22.5789 10.5832 22.0833 10.3929C21.6051 10.2072 21.0608 10.083 20.262 10.0436C19.4636 10.0075 19.21 10 17.1711 10V10ZM17.1711 11.3502C19.1734 11.3502 19.4125 11.36 20.2039 11.3938C20.9338 11.428 21.3314 11.5499 21.5953 11.653C21.9474 11.7894 22.1935 11.9507 22.4598 12.2142C22.7209 12.4753 22.8822 12.7242 23.0186 13.0763C23.1217 13.3403 23.2436 13.7378 23.2778 14.4677C23.3116 15.2591 23.3214 15.4987 23.3214 17.5005C23.3214 19.5023 23.3116 19.7418 23.275 20.5332C23.2357 21.2631 23.1138 21.6607 23.0111 21.9246C22.869 22.2767 22.7106 22.5228 22.449 22.7891C22.1851 23.0502 21.9338 23.2115 21.5845 23.3479C21.3238 23.4511 20.9207 23.5729 20.1879 23.6072C19.3924 23.6409 19.158 23.6508 17.1505 23.6508C15.1431 23.6508 14.9091 23.6409 14.1126 23.6044C13.3827 23.565 12.98 23.4431 12.7161 23.3404C12.3598 23.1984 12.1155 23.0399 11.8539 22.7783C11.59 22.5144 11.4221 22.2631 11.2928 21.9138C11.1877 21.6532 11.0677 21.25 11.0288 20.5173C11.0021 19.7311 10.9894 19.4873 10.9894 17.4892C10.9894 15.4921 11.0021 15.2478 11.0288 14.4518C11.0677 13.7191 11.1877 13.3168 11.2928 13.0552C11.4221 12.6985 11.5904 12.4547 11.8539 12.1907C12.115 11.9296 12.3598 11.7608 12.7161 11.6286C12.98 11.526 13.3729 11.4041 14.1056 11.3675C14.9012 11.3389 15.1356 11.3286 17.1402 11.3286L17.1711 11.3502ZM17.1711 13.6506C15.0423 13.6506 13.3208 15.3744 13.3208 17.5009C13.3208 19.6298 15.0446 21.3513 17.1711 21.3513C19.3 21.3513 21.0215 19.6275 21.0215 17.5009C21.0215 15.3721 19.2977 13.6506 17.1711 13.6506ZM17.1711 20.0011C15.7891 20.0011 14.671 18.883 14.671 17.5009C14.671 16.1189 15.7891 15.0008 17.1711 15.0008C18.5532 15.0008 19.6713 16.1189 19.6713 17.5009C19.6713 18.883 18.5532 20.0011 17.1711 20.0011ZM22.0768 13.4968C22.0768 13.9952 21.6712 14.3974 21.1752 14.3974C20.6769 14.3974 20.2747 13.9947 20.2747 13.4968C20.2747 13.0013 20.6797 12.5981 21.1752 12.5981C21.6708 12.5981 22.0768 13.0013 22.0768 13.4968Z" fill="#0E446E"/>
</svg>
