<svg width="46" height="47" viewBox="0 0 46 47" fill="none" xmlns="http://www.w3.org/2000/svg">
<circle cx="23.0251" cy="23.7937" r="21.6128" fill="white" stroke="#F9AB46" stroke-width="2.72498"/>
<circle cx="23.1109" cy="23.7083" r="18.5299" fill="#FEF2E3"/>
<path d="M23.2822 23.7083C25.4006 23.7083 27.1175 21.7565 27.1175 19.3483C27.1175 16.9401 25.4006 14.9883 23.2822 14.9883C21.1637 14.9883 19.4468 16.9401 19.4468 19.3483C19.4468 21.7565 21.1637 23.7083 23.2822 23.7083ZM21.9128 25.3432C18.9614 25.3432 16.5703 28.0614 16.5703 31.4166C16.5703 31.9752 16.9688 32.4282 17.4602 32.4282L29.1041 32.4282C29.5955 32.4282 29.994 31.9752 29.994 31.4166C29.994 28.0614 27.6029 25.3432 24.6515 25.3432L21.9128 25.3432Z" fill="#0E446E"/>
</svg>
