<svg width="20" height="21" viewBox="0 0 20 21" fill="none" xmlns="http://www.w3.org/2000/svg">
<path d="M19.7307 17.4536L15.8738 13.5967C15.6997 13.4227 15.4638 13.3259 15.2162 13.3259H14.5856C15.6533 11.9604 16.2878 10.2428 16.2878 8.37435C16.2878 3.92951 12.6862 0.328003 8.24141 0.328003C3.79658 0.328003 0.195068 3.92951 0.195068 8.37435C0.195068 12.8192 3.79658 16.4207 8.24141 16.4207C10.1099 16.4207 11.8274 15.7863 13.193 14.7186V15.3491C13.193 15.5967 13.2897 15.8327 13.4638 16.0068L17.3206 19.8636C17.6843 20.2272 18.2723 20.2272 18.632 19.8636L19.7268 18.7688C20.0904 18.4052 20.0904 17.8172 19.7307 17.4536ZM8.24141 13.3259C5.50643 13.3259 3.28982 11.1132 3.28982 8.37435C3.28982 5.63936 5.50256 3.42275 8.24141 3.42275C10.9764 3.42275 13.193 5.63549 13.193 8.37435C13.193 11.1093 10.9803 13.3259 8.24141 13.3259Z" fill="#F1F1F1"/>
</svg>
