<svg width="96" height="166" viewBox="0 0 96 166" fill="none" xmlns="http://www.w3.org/2000/svg">
<circle cx="7.21739" cy="7.21739" r="7.21739" fill="#FBCB91"/>
<circle cx="7.21763" cy="32.4781" r="7.21739" fill="#FBCB91"/>
<circle cx="7.21763" cy="57.7392" r="7.21739" fill="#FBCB91"/>
<circle cx="7.21739" cy="82.9999" r="7.21739" fill="#FBCB91"/>
<circle cx="7.21739" cy="108.261" r="7.21739" fill="#FBCB91"/>
<circle cx="7.21739" cy="133.522" r="7.21739" fill="#FBCB91"/>
<circle cx="7.21739" cy="158.783" r="7.21739" fill="#FBCB91"/>
<circle cx="34.2828" cy="7.21739" r="7.21739" fill="#FBCB91"/>
<circle cx="34.2828" cy="32.4781" r="7.21739" fill="#FBCB91"/>
<circle cx="34.2828" cy="57.7392" r="7.21739" fill="#FBCB91"/>
<circle cx="34.2826" cy="82.9999" r="7.21739" fill="#FBCB91"/>
<circle cx="34.2826" cy="108.261" r="7.21739" fill="#FBCB91"/>
<circle cx="34.2828" cy="133.522" r="7.21739" fill="#FBCB91"/>
<circle cx="34.2828" cy="158.783" r="7.21739" fill="#FBCB91"/>
<circle cx="61.348" cy="7.21727" r="7.21739" fill="#FBCB91"/>
<circle cx="61.348" cy="32.4781" r="7.21739" fill="#FBCB91"/>
<circle cx="61.348" cy="57.739" r="7.21739" fill="#FBCB91"/>
<circle cx="61.348" cy="82.9997" r="7.21739" fill="#FBCB91"/>
<circle cx="61.348" cy="108.261" r="7.21739" fill="#FBCB91"/>
<circle cx="61.348" cy="133.522" r="7.21739" fill="#FBCB91"/>
<circle cx="61.348" cy="158.782" r="7.21739" fill="#FBCB91"/>
<circle cx="88.4129" cy="7.21727" r="7.21739" fill="#FBCB91"/>
<circle cx="88.4134" cy="32.4781" r="7.21739" fill="#FBCB91"/>
<circle cx="88.4134" cy="57.739" r="7.21739" fill="#FBCB91"/>
<circle cx="88.4129" cy="82.9997" r="7.21739" fill="#FBCB91"/>
<circle cx="88.4129" cy="108.261" r="7.21739" fill="#FBCB91"/>
<circle cx="88.4129" cy="133.522" r="7.21739" fill="#FBCB91"/>
<circle cx="88.4129" cy="158.782" r="7.21739" fill="#FBCB91"/>
</svg>
