<svg width="48" height="82" viewBox="0 0 48 82" fill="none" xmlns="http://www.w3.org/2000/svg">
<circle cx="3.85188" cy="4.23097" r="3.5284" fill="#D9D9D9"/>
<circle cx="3.85188" cy="16.5804" r="3.5284" fill="#D9D9D9"/>
<circle cx="3.85188" cy="28.9297" r="3.5284" fill="#D9D9D9"/>
<circle cx="3.85188" cy="41.2791" r="3.5284" fill="#D9D9D9"/>
<circle cx="3.85188" cy="53.6285" r="3.5284" fill="#D9D9D9"/>
<circle cx="3.85188" cy="65.9779" r="3.5284" fill="#D9D9D9"/>
<circle cx="3.85188" cy="78.3273" r="3.5284" fill="#D9D9D9"/>
<circle cx="17.0833" cy="4.23097" r="3.5284" fill="#D9D9D9"/>
<circle cx="17.0833" cy="16.5804" r="3.5284" fill="#D9D9D9"/>
<circle cx="17.0833" cy="28.9297" r="3.5284" fill="#D9D9D9"/>
<circle cx="17.0833" cy="41.2791" r="3.5284" fill="#D9D9D9"/>
<circle cx="17.0833" cy="53.6285" r="3.5284" fill="#D9D9D9"/>
<circle cx="17.0833" cy="65.9779" r="3.5284" fill="#D9D9D9"/>
<circle cx="17.0833" cy="78.3273" r="3.5284" fill="#D9D9D9"/>
<circle cx="30.3148" cy="4.23097" r="3.5284" fill="#D9D9D9"/>
<circle cx="30.3148" cy="16.5804" r="3.5284" fill="#D9D9D9"/>
<circle cx="30.3148" cy="28.9297" r="3.5284" fill="#D9D9D9"/>
<circle cx="30.3148" cy="41.2791" r="3.5284" fill="#D9D9D9"/>
<circle cx="30.3148" cy="53.6285" r="3.5284" fill="#D9D9D9"/>
<circle cx="30.3148" cy="65.9779" r="3.5284" fill="#D9D9D9"/>
<circle cx="30.3148" cy="78.3273" r="3.5284" fill="#D9D9D9"/>
<circle cx="43.5462" cy="4.23097" r="3.5284" fill="#D9D9D9"/>
<circle cx="43.5462" cy="16.5804" r="3.5284" fill="#D9D9D9"/>
<circle cx="43.5462" cy="28.9297" r="3.5284" fill="#D9D9D9"/>
<circle cx="43.5462" cy="41.2791" r="3.5284" fill="#D9D9D9"/>
<circle cx="43.5462" cy="53.6285" r="3.5284" fill="#D9D9D9"/>
<circle cx="43.5462" cy="65.9779" r="3.5284" fill="#D9D9D9"/>
<circle cx="43.5462" cy="78.3273" r="3.5284" fill="#D9D9D9"/>
</svg>
