<svg width="47" height="82" viewBox="0 0 47 82" fill="none" xmlns="http://www.w3.org/2000/svg">
<circle cx="3.5284" cy="3.53078" r="3.5284" fill="#FBCB91"/>
<circle cx="3.5284" cy="15.8802" r="3.5284" fill="#FBCB91"/>
<circle cx="3.5284" cy="28.2295" r="3.5284" fill="#FBCB91"/>
<circle cx="3.5284" cy="40.5789" r="3.5284" fill="#FBCB91"/>
<circle cx="3.5284" cy="52.9283" r="3.5284" fill="#FBCB91"/>
<circle cx="3.5284" cy="65.2777" r="3.5284" fill="#FBCB91"/>
<circle cx="3.5284" cy="77.6271" r="3.5284" fill="#FBCB91"/>
<circle cx="16.7598" cy="3.53078" r="3.5284" fill="#FBCB91"/>
<circle cx="16.7598" cy="15.8802" r="3.5284" fill="#FBCB91"/>
<circle cx="16.7598" cy="28.2295" r="3.5284" fill="#FBCB91"/>
<circle cx="16.7598" cy="40.5789" r="3.5284" fill="#FBCB91"/>
<circle cx="16.7598" cy="52.9283" r="3.5284" fill="#FBCB91"/>
<circle cx="16.7598" cy="65.2777" r="3.5284" fill="#FBCB91"/>
<circle cx="16.7598" cy="77.6271" r="3.5284" fill="#FBCB91"/>
<circle cx="29.9913" cy="3.53078" r="3.5284" fill="#FBCB91"/>
<circle cx="29.9913" cy="15.8802" r="3.5284" fill="#FBCB91"/>
<circle cx="29.9913" cy="28.2295" r="3.5284" fill="#FBCB91"/>
<circle cx="29.9913" cy="40.5789" r="3.5284" fill="#FBCB91"/>
<circle cx="29.9913" cy="52.9283" r="3.5284" fill="#FBCB91"/>
<circle cx="29.9913" cy="65.2777" r="3.5284" fill="#FBCB91"/>
<circle cx="29.9913" cy="77.6271" r="3.5284" fill="#FBCB91"/>
<circle cx="43.2229" cy="3.53078" r="3.5284" fill="#FBCB91"/>
<circle cx="43.2229" cy="15.8802" r="3.5284" fill="#FBCB91"/>
<circle cx="43.2229" cy="28.2295" r="3.5284" fill="#FBCB91"/>
<circle cx="43.2229" cy="40.5789" r="3.5284" fill="#FBCB91"/>
<circle cx="43.2229" cy="52.9283" r="3.5284" fill="#FBCB91"/>
<circle cx="43.2229" cy="65.2777" r="3.5284" fill="#FBCB91"/>
<circle cx="43.2229" cy="77.6271" r="3.5284" fill="#FBCB91"/>
</svg>
