<svg width="35" height="35" viewBox="0 0 35 35" fill="none" xmlns="http://www.w3.org/2000/svg">
<circle cx="17.3356" cy="17.3356" r="16.5293" stroke="#F8A12D" stroke-width="1.61261"/>
<path d="M26.2089 10.317C25.5468 10.7028 24.838 10.9682 24.091 11.0886C24.8532 10.4807 25.436 9.51924 25.7139 8.37383C24.9989 8.9271 24.208 9.32784 23.3671 9.55438C22.6966 8.60037 21.7381 8 20.6744 8C18.6354 8 16.9827 10.1959 16.9827 12.9024C16.9827 13.2919 17.0182 13.6658 17.0795 14.0202C14.0122 13.8295 11.293 11.8706 9.47448 8.9114C9.15498 9.63214 8.97329 10.4695 8.97329 11.3809C8.97329 13.0863 9.62635 14.5816 10.6135 15.4609C10.01 15.4377 9.44185 15.2157 8.94404 14.8501V14.9091C8.94404 17.2874 10.2153 19.2702 11.9028 19.7218C11.5951 19.8302 11.2666 19.893 10.933 19.893C10.6962 19.893 10.4701 19.8624 10.2445 19.807C10.7193 21.7539 12.0783 23.1715 13.6983 23.2141C12.4389 24.5263 10.8425 25.3083 9.12235 25.3083C8.82929 25.3083 8.53679 25.2896 8.24316 25.2425C9.88398 26.6332 11.8207 27.4466 13.9126 27.4466C20.7003 27.4466 24.4094 19.9738 24.4094 13.502C24.4094 13.2957 24.4094 13.0856 24.3976 12.8747C25.1215 12.1891 25.7482 11.3204 26.2432 10.3357L26.2089 10.317Z" fill="#0E446E"/>
</svg>
