<svg width="33" height="33" viewBox="0 0 33 33" fill="none" xmlns="http://www.w3.org/2000/svg">
<circle cx="16.8983" cy="16.5387" r="15.3328" stroke="#0E446E" stroke-width="1.49588"/>
<path d="M25.1294 10.0282C24.5153 10.386 23.8578 10.6323 23.1649 10.7439C23.8719 10.1801 24.4125 9.28817 24.6703 8.22568C24.0071 8.73889 23.2734 9.11063 22.4934 9.32077C21.8714 8.43582 20.9823 7.87891 19.9956 7.87891C18.1042 7.87891 16.5712 9.91583 16.5712 12.4264C16.5712 12.7878 16.604 13.1345 16.6609 13.4633C13.8156 13.2864 11.2933 11.4693 9.60641 8.72433C9.31004 9.3929 9.14151 10.1697 9.14151 11.0151C9.14151 12.597 9.74729 13.9841 10.663 14.7997C10.1031 14.7782 9.57615 14.5722 9.11437 14.2331V14.2879C9.11437 16.494 10.2936 18.3333 11.8589 18.7522C11.5735 18.8528 11.2688 18.911 10.9594 18.911C10.7397 18.911 10.53 18.8826 10.3207 18.8313C10.7611 20.6372 12.0217 21.9522 13.5245 21.9917C12.3562 23.2089 10.8754 23.9343 9.27978 23.9343C9.00793 23.9343 8.7366 23.917 8.46423 23.8733C9.98627 25.1632 11.7828 25.9178 13.7233 25.9178C20.0196 25.9178 23.4602 18.9859 23.4602 12.9826C23.4602 12.7912 23.4602 12.5963 23.4493 12.4008C24.1208 11.7648 24.7021 10.9589 25.1612 10.0455L25.1294 10.0282Z" fill="#0E446E"/>
</svg>
