<svg width="36" height="36" viewBox="0 0 36 36" fill="none" xmlns="http://www.w3.org/2000/svg">
<circle cx="17.7387" cy="17.7387" r="16.9137" stroke="#F8A12D" stroke-width="1.65012"/>
<path d="M21.4678 19.7871C21.2534 19.6729 20.2096 19.1368 20.0146 19.0603C19.8195 18.9872 19.6779 18.9489 19.5357 19.1745C19.3967 19.3944 18.9873 19.8979 18.8623 20.0447C18.7372 20.1915 18.6143 20.2028 18.4032 20.1032C18.1889 19.989 17.5042 19.7544 16.6913 18.9872C16.0564 18.3926 15.6336 17.6602 15.5081 17.4347C15.383 17.2119 15.817 16.6933 15.9228 16.5819C15.8143 16.7169 16.0201 16.4796 15.9228 16.5819C16.0259 16.4469 16.0591 16.3564 16.1344 16.2101C16.2039 16.0521 16.1681 15.9289 16.1152 15.8175C16.0623 15.7061 15.6363 14.6019 15.4583 14.1621C15.2884 13.7256 15.1104 13.7812 14.9795 13.7812C14.8571 13.7694 14.7149 13.7694 14.5733 13.7694C14.4317 13.7694 14.2002 13.8251 14.0052 14.0389C13.8101 14.2644 13.2591 14.8033 13.2591 15.8934C13.2591 16.9864 14.0217 18.0439 14.1276 18.2019C14.236 18.3482 15.6278 20.5982 17.7629 21.5651C18.2722 21.7907 18.6677 21.9257 18.9767 22.0371C19.486 22.2069 19.951 22.1833 20.3181 22.1276C20.7243 22.0573 21.5762 21.5854 21.7548 21.0583C21.9359 20.5279 21.9359 20.0886 21.883 19.989C21.8301 19.8866 21.6912 19.8309 21.4768 19.7314L21.4678 19.7871ZM17.5956 25.3125H17.5844C16.3204 25.3125 15.0709 24.9519 13.9795 24.2781L13.7235 24.1172L11.0512 24.8496L11.7695 22.113L11.5969 21.8317C10.8925 20.6511 10.5168 19.2887 10.5168 17.8886C10.5168 13.8049 13.693 10.4737 17.601 10.4737C19.494 10.4737 21.27 11.25 22.6061 12.6562C23.9423 14.0507 24.6798 15.9199 24.6798 17.9004C24.6745 21.9814 21.5009 25.3125 17.5983 25.3125H17.5956ZM23.6221 11.5869C21.9963 9.93431 19.8585 9 17.5844 9C12.894 9 9.07482 13.0022 9.07215 17.9207C9.07215 19.4912 9.46177 21.0234 10.2079 22.3796L9 27L13.5151 25.7608C14.7593 26.4668 16.1596 26.8447 17.5849 26.8476H17.5876C22.2807 26.8476 26.0999 22.8454 26.1025 17.9235C26.1025 15.5419 25.2202 13.3003 23.6114 11.6156L23.6221 11.5869Z" fill="#0E446E"/>
</svg>
