<svg width="33" height="34" viewBox="0 0 33 34" fill="none" xmlns="http://www.w3.org/2000/svg">
<circle cx="16.5196" cy="16.6607" r="15.6893" stroke="#0E446E" stroke-width="1.53067"/>
<path d="M19.9786 18.7406C19.7798 18.6347 18.8115 18.1374 18.6306 18.0664C18.4496 17.9986 18.3182 17.9631 18.1864 18.1724C18.0575 18.3764 17.6777 18.8434 17.5617 18.9796C17.4457 19.1157 17.3317 19.1262 17.1358 19.0338C16.937 18.9279 16.302 18.7103 15.5479 17.9986C14.9589 17.4471 14.5668 16.7677 14.4503 16.5585C14.3343 16.3519 14.4374 16.235 14.5355 16.1317C14.6258 16.0367 14.7343 15.8927 14.835 15.7675C14.9307 15.6422 14.9614 15.5582 15.0313 15.4226C15.0958 15.276 15.0625 15.1617 15.0135 15.0584C14.9644 14.9551 14.5693 13.9308 14.4042 13.5228C14.2465 13.1179 14.0814 13.1695 13.96 13.1695C13.8464 13.1586 13.7146 13.1586 13.5832 13.1586C13.4518 13.1586 13.2371 13.2102 13.0562 13.4085C12.8752 13.6177 12.3641 14.1176 12.3641 15.1288C12.3641 16.1426 13.0715 17.1236 13.1697 17.2702C13.2704 17.4059 14.5613 19.493 16.5419 20.3899C17.0144 20.5992 17.3812 20.7244 17.6678 20.8277C18.1403 20.9853 18.5716 20.9634 18.9122 20.9117C19.289 20.8465 20.0792 20.4087 20.2448 19.9198C20.4129 19.4278 20.4129 19.0203 20.3638 18.9279C20.3147 18.8329 20.1858 18.7813 19.987 18.6889L19.9786 18.7406ZM16.3867 23.866H16.3763C15.2038 23.866 14.0447 23.5316 13.0324 22.9065L12.7949 22.7573L10.3161 23.4366L10.9824 20.8982L10.8223 20.6373C10.1688 19.542 9.82031 18.2783 9.82031 16.9796C9.82031 13.1914 12.7667 10.1014 16.3917 10.1014C18.1477 10.1014 19.7951 10.8215 21.0345 12.126C22.274 13.4195 22.9581 15.1533 22.9581 16.9905C22.9532 20.7761 20.0093 23.866 16.3892 23.866H16.3867ZM21.977 11.134C20.4689 9.60105 18.4858 8.73438 16.3763 8.73438C12.0255 8.73438 8.48274 12.4469 8.48026 17.0093C8.48026 18.4661 8.84167 19.8875 9.53376 21.1455L8.41333 25.4314L12.6016 24.2819C13.7557 24.9367 15.0546 25.2874 16.3768 25.29H16.3793C20.7326 25.29 24.2754 21.5775 24.2779 17.0119C24.2779 14.8027 23.4593 12.7234 21.9671 11.1607L21.977 11.134Z" fill="#0E446E"/>
</svg>
